<svg width="45" height="34" viewBox="0 0 45 34" fill="none" xmlns="http://www.w3.org/2000/svg">
<path fill-rule="evenodd" clip-rule="evenodd" d="M7.15001 20.7V7.45321L15 24.339L15 27L15 31.4872V32V33V34H0V32L6.67572e-06 26.75C1.80001 26.75 3.18334 26.7 4.15001 26.6C5.11667 26.5 5.81667 26.25 6.25001 25.85C6.71667 25.4167 6.98334 24.8 7.05001 24C7.11667 22.9333 7.15001 21.8333 7.15001 20.7Z" fill="black"/>
<path fill-rule="evenodd" clip-rule="evenodd" d="M22.8285 33.9442H29.1479L30.6 30.6L16.2 -7.27177e-06H7.04831L22.8285 33.9442ZM35.25 33.9442H44.75V-7.27177e-06H35.25L27.7457 18.0198L32.1432 26.9784L35.05 19.95H35.25V33.9442Z" fill="black"/>
</svg>
